<svg width="15" height="20" viewBox="0 0 15 20" fill="none" xmlns="http://www.w3.org/2000/svg">
<path d="M8.42254 1.73783L1.7827 11.1781C1.73245 11.2513 1.69814 11.3351 1.68223 11.4238C1.66061 11.5133 1.66061 11.607 1.68223 11.6965C1.71587 11.7808 1.77083 11.8538 1.84115 11.9077C1.90841 11.9532 1.9867 11.9775 2.06671 11.9777H7.08453L6.32376 18.1311C6.31247 18.1679 6.31247 18.2075 6.32376 18.2443C6.33976 18.2787 6.36604 18.3068 6.3986 18.324C6.43099 18.3369 6.4667 18.3369 6.49908 18.324C6.51776 18.3214 6.53567 18.3145 6.55159 18.3039C6.56751 18.2933 6.58108 18.2792 6.59136 18.2626L13.2302 8.82234C13.2818 8.7468 13.3162 8.65978 13.3307 8.56802C13.3384 8.47764 13.324 8.38669 13.2891 8.30374C13.2541 8.22078 13.1996 8.14855 13.1307 8.09385C13.0636 8.04793 12.9853 8.02324 12.9052 8.02272H7.88734L8.64811 1.86931C8.6594 1.83252 8.6594 1.79294 8.64811 1.75615C8.63185 1.72153 8.60518 1.6935 8.57224 1.67641C8.54016 1.66385 8.50486 1.66385 8.47278 1.67641C8.45027 1.69107 8.43242 1.71246 8.42152 1.73783" stroke="#2B2334" stroke-width="1.5" stroke-linecap="round" stroke-linejoin="round"/>
</svg>
