<svg width="19" height="18" viewBox="0 0 19 18" fill="none" xmlns="http://www.w3.org/2000/svg">
<path d="M16.8671 2.84124C16.4415 2.41541 15.9361 2.07761 15.3799 1.84714C14.8237 1.61667 14.2275 1.49805 13.6254 1.49805C13.0234 1.49805 12.4272 1.61667 11.871 1.84714C11.3147 2.07761 10.8094 2.41541 10.3838 2.84124L9.50043 3.72457L8.61709 2.84124C7.75735 1.98149 6.59129 1.49849 5.37542 1.49849C4.15956 1.49849 2.9935 1.98149 2.13376 2.84124C1.27401 3.70098 0.791016 4.86704 0.791016 6.0829C0.791016 7.29876 1.27401 8.46483 2.13376 9.32457L3.01709 10.2079L9.50043 16.6912L15.9838 10.2079L16.8671 9.32457C17.2929 8.89894 17.6307 8.39358 17.8612 7.83736C18.0917 7.28115 18.2103 6.68497 18.2103 6.0829C18.2103 5.48083 18.0917 4.88465 17.8612 4.32844C17.6307 3.77222 17.2929 3.26686 16.8671 2.84124Z" stroke="#2B2334" stroke-width="1.5" stroke-linecap="round" stroke-linejoin="round"/>
</svg>
