<svg width="122" height="28" viewBox="0 0 122 28" fill="none" xmlns="http://www.w3.org/2000/svg">
<path d="M113.549 28.0009C112.678 28.0009 111.909 27.7135 111.242 27.1389C110.593 26.5828 110.269 25.8691 110.269 24.9979C110.269 24.1823 110.472 23.5149 110.88 22.9959C111.288 22.4769 111.816 22.069 112.465 21.7725C113.113 21.4759 113.984 21.1607 115.078 20.8271L115.328 19.6593C114.364 20.6973 113.252 21.2164 111.992 21.2164C110.936 21.2164 110.055 20.8549 109.351 20.1319C108.647 19.409 108.295 18.2783 108.295 16.7397C108.295 15.368 108.564 13.9313 109.101 12.4299C109.657 10.9098 110.472 9.63078 111.547 8.59272C112.641 7.53611 113.938 7.00781 115.439 7.00781C116.199 7.00781 116.764 7.13757 117.135 7.39709C117.505 7.6566 117.691 7.99954 117.691 8.42589V8.4815L117.969 7.14684H122L118.608 23.2739C118.237 25.0535 117.58 26.2862 116.634 26.9721C115.708 27.6579 114.679 28.0009 113.549 28.0009ZM113.799 18.5192C114.225 18.5192 114.651 18.3431 115.078 17.9909C115.523 17.6202 115.838 17.1012 116.023 16.4338L117.441 9.70493C117.292 9.05614 116.912 8.73175 116.301 8.73175C115.56 8.73175 114.892 9.16736 114.299 10.0386C113.706 10.8913 113.243 11.9294 112.909 13.1528C112.576 14.3577 112.409 15.4236 112.409 16.3504C112.409 17.2773 112.539 17.8704 112.798 18.13C113.076 18.3895 113.41 18.5192 113.799 18.5192ZM112.909 25.5262C113.243 25.5262 113.558 25.3501 113.855 24.9979C114.151 24.6642 114.383 24.1174 114.55 23.3574L114.883 21.7168C113.901 22.0505 113.141 22.4398 112.604 22.8847C112.066 23.3296 111.798 23.9042 111.798 24.6086C111.798 24.831 111.909 25.035 112.131 25.2203C112.353 25.4242 112.613 25.5262 112.909 25.5262Z" fill="#FBFBFC"/>
<path d="M99.4887 28.0009C98.5992 28.0009 97.8579 27.7691 97.2649 27.3057C96.6718 26.8423 96.3753 26.175 96.3753 25.3037C96.3753 24.2471 96.8015 23.3944 97.654 22.7456C98.5065 22.1154 99.5907 21.5871 100.906 21.1607L101.24 19.6871C100.295 20.7066 99.183 21.2164 97.9042 21.2164C96.8479 21.2164 95.9676 20.8549 95.2634 20.1319C94.5591 19.409 94.207 18.2783 94.207 16.7397C94.207 15.368 94.4757 13.9313 95.0132 12.4299C95.5692 10.9098 96.3846 9.63078 97.4594 8.59272C98.5529 7.53611 99.8501 7.00781 101.351 7.00781C102.111 7.00781 102.676 7.13757 103.047 7.39709C103.418 7.6566 103.603 7.99954 103.603 8.42589V8.59272L103.909 7.14684H107.912L105.16 20.0485C106.049 19.7519 106.763 19.3071 107.3 18.7139C107.838 18.1207 108.292 17.2402 108.662 16.0724H109.83C109.329 17.7221 108.653 18.9363 107.8 19.7149C106.948 20.4749 105.984 20.9939 104.909 21.272L104.492 23.2739C104.122 25.072 103.482 26.3047 102.574 26.9721C101.666 27.6579 100.638 28.0009 99.4887 28.0009ZM99.7111 18.5192C100.137 18.5192 100.573 18.3246 101.018 17.9353C101.462 17.546 101.768 17.0177 101.935 16.3504L103.353 9.76054C103.353 9.5381 103.26 9.31566 103.075 9.09321C102.889 8.85223 102.602 8.73175 102.213 8.73175C101.472 8.73175 100.805 9.16736 100.211 10.0386C99.6185 10.8913 99.1551 11.9294 98.8216 13.1528C98.488 14.3577 98.3212 15.4236 98.3212 16.3504C98.3212 17.2773 98.4509 17.8704 98.7104 18.13C98.9884 18.3895 99.3219 18.5192 99.7111 18.5192ZM98.8494 25.832C99.1644 25.832 99.4702 25.6189 99.7667 25.1925C100.063 24.7662 100.295 24.1544 100.462 23.3574L100.628 22.551C98.8123 23.2183 97.9042 24.0062 97.9042 24.9145C97.9042 25.1554 97.9876 25.3686 98.1544 25.554C98.3212 25.7394 98.5528 25.832 98.8494 25.832Z" fill="#FBFBFC"/>
<path d="M90.323 21.1593C89.7115 21.1593 89.1926 20.9462 88.7663 20.5198C88.3401 20.0935 88.127 19.5744 88.127 18.9627C88.127 18.351 88.3401 17.832 88.7663 17.4056C89.1926 16.9607 89.7115 16.7383 90.323 16.7383C90.9346 16.7383 91.4535 16.9607 91.8797 17.4056C92.3245 17.832 92.5469 18.351 92.5469 18.9627C92.5469 19.5744 92.3245 20.0935 91.8797 20.5198C91.4535 20.9462 90.9346 21.1593 90.323 21.1593Z" fill="#FBFBFC"/>
<path d="M77.6249 21.2164C76.5686 21.2164 75.6883 20.8549 74.9841 20.1319C74.2798 19.409 73.9277 18.2783 73.9277 16.7397C73.9277 15.368 74.1964 13.9313 74.7339 12.4299C75.2899 10.9098 76.1053 9.63078 77.1801 8.59272C78.2736 7.53611 79.5708 7.00781 81.0719 7.00781C81.8318 7.00781 82.397 7.13757 82.7676 7.39709C83.1383 7.6566 83.3236 7.99954 83.3236 8.42589V8.62052L83.6294 7.14684H87.6324L85.6309 16.6007C85.5567 16.8787 85.5197 17.1753 85.5197 17.4904C85.5197 17.8612 85.6031 18.13 85.7699 18.2968C85.9552 18.4451 86.2517 18.5192 86.6594 18.5192C86.9189 18.5192 87.1227 18.4822 87.271 18.408C86.8633 19.4461 86.4741 20.1783 86.1034 20.6046C85.7328 21.0124 85.1954 21.2164 84.4911 21.2164C83.7313 21.2164 83.1105 20.9939 82.6286 20.549C82.1653 20.0856 81.8781 19.4461 81.7669 18.6305C80.6364 20.3544 79.2558 21.2164 77.6249 21.2164ZM79.4318 18.5192C79.8951 18.5192 80.3492 18.3061 80.7939 17.8797C81.2573 17.4348 81.5723 16.8324 81.7391 16.0724L83.0734 9.78835C83.0734 9.54737 82.9808 9.31566 82.7954 9.09321C82.6101 8.85223 82.3229 8.73175 81.9337 8.73175C81.1924 8.73175 80.5252 9.16736 79.9322 10.0386C79.3392 10.8913 78.8759 11.9294 78.5423 13.1528C78.2087 14.3577 78.0419 15.4236 78.0419 16.3504C78.0419 17.2773 78.1716 17.8704 78.4311 18.13C78.7091 18.3895 79.0426 18.5192 79.4318 18.5192Z" fill="#FBFBFC"/>
<path d="M69.6287 21.2146C68.7392 21.2146 68.0164 20.9365 67.4605 20.3804C66.923 19.8243 66.6543 18.9901 66.6543 17.8779C66.6543 17.4145 66.7284 16.8121 66.8767 16.0706L69.8511 2.14009L73.9653 1.58398L70.7685 16.5989C70.6943 16.8769 70.6573 17.1735 70.6573 17.4887C70.6573 17.8594 70.7407 18.1282 70.9075 18.295C71.0928 18.4433 71.3893 18.5175 71.797 18.5175C72.3345 18.5175 72.8348 18.295 73.2981 17.8501C73.7614 17.3867 74.095 16.7935 74.2989 16.0706H75.4664C74.7807 18.0726 73.9004 19.435 72.8256 20.158C71.7507 20.8624 70.6851 21.2146 69.6287 21.2146Z" fill="#FBFBFC"/>
<path d="M58.7192 21.1606C57.3478 21.1606 56.2637 20.8084 55.4668 20.104C54.6699 19.3996 54.2715 18.2874 54.2715 16.7674C54.2715 15.5069 54.5309 14.1073 55.0498 12.5688C55.5687 11.0302 56.4027 9.70483 57.5517 8.59261C58.7007 7.46186 60.1462 6.89648 61.8883 6.89648C64.2604 6.89648 65.4465 8.37944 65.4465 11.3453V11.3731C65.5021 11.3917 65.604 11.401 65.7522 11.401C66.3638 11.401 67.068 11.2434 67.8649 10.9283C68.6618 10.5946 69.3846 10.1961 70.0332 9.73263L70.2834 10.4834C69.7459 11.058 69.0417 11.5492 68.1707 11.9571C67.3182 12.3463 66.3823 12.6244 65.3631 12.7912C65.2148 14.4781 64.8349 15.9518 64.2233 17.2123C63.6118 18.4728 62.8241 19.446 61.8605 20.1318C60.8968 20.8177 59.8497 21.1606 58.7192 21.1606ZM59.8312 18.6582C60.2759 18.6582 60.7207 18.4079 61.1655 17.9074C61.6103 17.3884 61.9995 16.6932 62.333 15.822C62.6666 14.9322 62.9075 13.9498 63.0558 12.8746C62.5554 12.7634 62.3052 12.3741 62.3052 11.7068C62.3052 10.9468 62.5925 10.4463 63.167 10.2053C63.1299 9.5936 63.0373 9.17652 62.889 8.95408C62.7407 8.7131 62.4813 8.59261 62.1106 8.59261C61.4991 8.59261 60.906 9.0375 60.3315 9.92727C59.757 10.817 59.2937 11.8829 58.9416 13.1249C58.5895 14.3669 58.4135 15.4605 58.4135 16.4059C58.4135 17.2957 58.5154 17.8981 58.7192 18.2133C58.9231 18.5099 59.2937 18.6582 59.8312 18.6582Z" fill="#FBFBFC"/>
<path d="M50.6619 21.2159C49.5314 21.2159 48.6975 20.9193 48.16 20.3261C47.6411 19.7144 47.3817 18.9637 47.3817 18.0739C47.3817 17.6846 47.428 17.249 47.5207 16.767C47.6133 16.2665 47.706 15.7846 47.7987 15.3212C47.9098 14.8577 47.984 14.5611 48.021 14.4314C48.1693 13.7826 48.3083 13.1431 48.438 12.5128C48.5677 11.8826 48.6326 11.3728 48.6326 10.9835C48.6326 10.0381 48.299 9.56544 47.6319 9.56544C47.15 9.56544 46.7238 9.80642 46.3531 10.2884C45.9825 10.7518 45.686 11.3635 45.4636 12.1235L43.5733 21.0491H39.5703L42.5169 7.14638H46.5199L46.2141 8.59226C47.1408 7.55419 48.2249 7.03516 49.4666 7.03516C50.4117 7.03516 51.1623 7.29467 51.7182 7.81371C52.2742 8.33274 52.5522 9.12056 52.5522 10.1772C52.5522 10.7147 52.4873 11.3172 52.3576 11.9845C52.2279 12.6333 52.0426 13.4304 51.8016 14.3758C51.6534 14.9504 51.5144 15.5158 51.3847 16.0719C51.2735 16.6095 51.2179 17.0358 51.2179 17.3509C51.2179 17.7217 51.3013 18.009 51.468 18.2129C51.6348 18.4168 51.9221 18.5188 52.3298 18.5188C52.8858 18.5188 53.3305 18.3241 53.6641 17.9349C53.9977 17.527 54.3313 16.9061 54.6649 16.0719H55.8324C55.1467 18.111 54.3498 19.4827 53.4417 20.1871C52.5522 20.873 51.6256 21.2159 50.6619 21.2159Z" fill="#FBFBFC"/>
<path d="M29.33 21.2164C28.2737 21.2164 27.3934 20.8549 26.6892 20.1319C25.9849 19.409 25.6328 18.2783 25.6328 16.7397C25.6328 15.368 25.9015 13.9313 26.439 12.4299C26.9949 10.9098 27.8104 9.63078 28.8852 8.59272C29.9786 7.53611 31.2759 7.00781 32.777 7.00781C33.5368 7.00781 34.1021 7.13757 34.4727 7.39709C34.8434 7.6566 35.0287 7.99954 35.0287 8.42589V8.62052L35.3345 7.14684H39.3374L37.336 16.6007C37.2618 16.8787 37.2248 17.1753 37.2248 17.4904C37.2248 18.2875 37.6047 18.6861 38.3645 18.6861C38.8834 18.6861 39.3282 18.4451 39.6988 17.9631C40.088 17.4812 40.3938 16.8509 40.6162 16.0724H41.7837C41.098 18.0743 40.2455 19.4368 39.2263 20.1597C38.2255 20.8642 37.2155 21.2164 36.1962 21.2164C35.4179 21.2164 34.7878 21.0032 34.3059 20.5768C33.8426 20.1319 33.5646 19.4924 33.472 18.6583C32.9345 19.4183 32.3322 20.0393 31.6651 20.5212C31.0164 20.9846 30.2381 21.2164 29.33 21.2164ZM31.1369 18.5192C31.6002 18.5192 32.0543 18.3061 32.499 17.8797C32.9623 17.4348 33.2774 16.8324 33.4442 16.0724L34.7785 9.78835C34.7785 9.54737 34.6858 9.31566 34.5005 9.09321C34.3152 8.85223 34.0279 8.73175 33.6388 8.73175C32.8975 8.73175 32.2303 9.16736 31.6373 10.0386C31.0442 10.8913 30.5809 11.9294 30.2474 13.1528C29.9138 14.3577 29.747 15.4236 29.747 16.3504C29.747 17.2773 29.8767 17.8704 30.1362 18.13C30.4141 18.3895 30.7477 18.5192 31.1369 18.5192Z" fill="#FBFBFC"/>
<path d="M17.433 7.14648H21.4359L21.0746 8.87042C21.7047 8.31431 22.2699 7.88796 22.7703 7.59137C23.2892 7.29478 23.8451 7.14648 24.4382 7.14648C25.0312 7.14648 25.4945 7.35039 25.8281 7.7582C26.1802 8.16601 26.3563 8.65724 26.3563 9.23189C26.3563 9.76946 26.1802 10.2421 25.8281 10.65C25.476 11.0578 24.9849 11.2617 24.3548 11.2617C23.9471 11.2617 23.6691 11.169 23.5208 10.9836C23.3911 10.7797 23.2892 10.4924 23.215 10.1217C23.1594 9.88068 23.1038 9.70458 23.0483 9.59336C22.9927 9.48213 22.8907 9.42652 22.7425 9.42652C22.3533 9.42652 22.0197 9.50994 21.7417 9.67677C21.4823 9.82507 21.1394 10.0939 20.7132 10.4831L18.4893 21.0492H14.4863L17.433 7.14648Z" fill="#FBFBFC"/>
<path d="M5.89327 26.8044C4.54041 26.8044 3.44701 26.4522 2.61305 25.7478C1.79763 25.0619 1.38992 24.1536 1.38992 23.0228C1.38992 22.3184 1.55671 21.6696 1.89029 21.0765C2.22388 20.4833 2.67792 20.0199 3.25242 19.6862C3.82692 19.334 4.45702 19.1579 5.14271 19.1579C5.84694 19.1579 6.41218 19.334 6.83842 19.6862C7.28319 20.0384 7.50558 20.5018 7.50558 21.0765C7.50558 21.5213 7.40365 21.8736 7.1998 22.1331C7.03301 21.9106 6.80135 21.7345 6.50484 21.6048C6.22685 21.475 5.93034 21.4101 5.61529 21.4101C5.05932 21.4101 4.60528 21.5955 4.25316 21.9662C3.90105 22.337 3.72499 22.8189 3.72499 23.4121C3.72499 24.0053 3.89178 24.4873 4.22536 24.858C4.57748 25.2287 5.01299 25.4141 5.53189 25.4141C6.18052 25.4141 6.73649 25.1268 7.1998 24.5521C7.66311 23.9775 8.01522 23.1248 8.25614 21.994L9.64606 15.8491H9.53487C9.0345 16.5535 8.42293 17.091 7.70017 17.4618C6.99594 17.8325 6.21759 18.0179 5.3651 18.0179C4.29023 18.0179 3.34508 17.7306 2.52966 17.1559C1.71424 16.5813 1.08414 15.7656 0.639364 14.709C0.213121 13.6339 0 12.3919 0 10.9831C0 8.94406 0.444775 7.09037 1.33433 5.42204C2.22388 3.73519 3.44701 2.4098 5.00372 1.44588C6.56043 0.48196 8.27467 0 10.1464 0C11.7217 0 12.9633 0.342933 13.8714 1.0288C14.798 1.71466 15.2613 2.65078 15.2613 3.83714C15.2613 4.63423 15.0668 5.27375 14.6776 5.75571C14.2884 6.23767 13.7788 6.47865 13.1487 6.47865C12.7966 6.47865 12.463 6.4045 12.1479 6.25621C11.8514 6.10791 11.6012 5.89474 11.3974 5.61668C11.7309 5.39424 12.0089 5.04204 12.2313 4.56008C12.4722 4.05958 12.5927 3.55909 12.5927 3.05859C12.5927 2.50248 12.4259 2.07613 12.0923 1.77954C11.7773 1.46442 11.3232 1.30685 10.7302 1.30685C9.65533 1.30685 8.61752 1.78881 7.61678 2.75273C6.61603 3.69811 5.80988 4.94008 5.19831 6.47865C4.58674 8.01721 4.28096 9.62992 4.28096 11.3168C4.28096 12.707 4.50335 13.7729 4.94812 14.5144C5.3929 15.2373 6.03226 15.5988 6.86622 15.5988C7.86696 15.5988 8.74725 15.0705 9.50707 14.0139C10.2854 12.9573 10.9063 11.4187 11.3696 9.39821L14.6498 9.42602L12.6205 18.7686C12.0275 21.5306 11.1842 23.5604 10.0908 24.858C9.01596 26.1556 7.61677 26.8044 5.89327 26.8044Z" fill="#FBFBFC"/>
</svg>
