<svg width="123" height="28" viewBox="0 0 123 28" fill="none" xmlns="http://www.w3.org/2000/svg">
<path d="M113.847 27.9354C112.977 27.9354 112.21 27.6487 111.544 27.0754C110.897 26.5206 110.573 25.8085 110.573 24.9393C110.573 24.1255 110.777 23.4597 111.184 22.9418C111.59 22.424 112.117 22.0171 112.765 21.7212C113.412 21.4253 114.281 21.1109 115.373 20.778L115.622 19.6128C114.661 20.6485 113.551 21.1664 112.293 21.1664C111.239 21.1664 110.361 20.8057 109.658 20.0844C108.955 19.3631 108.604 18.235 108.604 16.6999C108.604 15.3313 108.872 13.898 109.408 12.3999C109.963 10.8834 110.777 9.60722 111.849 8.57152C112.941 7.51733 114.235 6.99023 115.733 6.99023C116.491 6.99023 117.056 7.1197 117.425 7.37862C117.795 7.63755 117.98 7.9797 117.98 8.40507V8.46056L118.258 7.12894H122.28L118.896 23.2193C118.526 24.9948 117.869 26.2246 116.926 26.9089C116.001 27.5932 114.975 27.9354 113.847 27.9354ZM114.096 18.4754C114.522 18.4754 114.947 18.2997 115.373 17.9483C115.816 17.5784 116.131 17.0606 116.316 16.3948L117.731 9.6812C117.583 9.03389 117.204 8.71023 116.593 8.71023C115.853 8.71023 115.188 9.14486 114.596 10.0141C114.004 10.8649 113.542 11.9006 113.209 13.1212C112.876 14.3234 112.709 15.3868 112.709 16.3115C112.709 17.2363 112.839 17.8281 113.098 18.087C113.375 18.3459 113.708 18.4754 114.096 18.4754ZM113.209 25.4664C113.542 25.4664 113.856 25.2907 114.152 24.9393C114.448 24.6064 114.679 24.0608 114.845 23.3025L115.178 21.6657C114.198 21.9986 113.44 22.387 112.904 22.8309C112.367 23.2747 112.099 23.8481 112.099 24.5509C112.099 24.7728 112.21 24.9763 112.432 25.1612C112.654 25.3646 112.913 25.4664 113.209 25.4664Z" fill="#FF6F6F"/>
<path d="M99.812 27.9354C98.9242 27.9354 98.1845 27.7042 97.5926 27.2418C97.0008 26.7795 96.7049 26.1137 96.7049 25.2444C96.7049 24.1902 97.1303 23.3395 97.981 22.6922C98.8318 22.0634 99.9137 21.5363 101.227 21.1109L101.56 19.6406C100.616 20.6578 99.5068 21.1664 98.2307 21.1664C97.1765 21.1664 96.298 20.8057 95.5952 20.0844C94.8924 19.3631 94.541 18.235 94.541 16.6999C94.541 15.3313 94.8092 13.898 95.3455 12.3999C95.9004 10.8834 96.7141 9.60722 97.7868 8.57152C98.878 7.51733 100.173 6.99023 101.671 6.99023C102.429 6.99023 102.993 7.1197 103.363 7.37862C103.733 7.63755 103.918 7.9797 103.918 8.40507V8.57152L104.223 7.12894H108.218L105.471 20.0012C106.359 19.7053 107.071 19.2614 107.607 18.6696C108.144 18.0778 108.597 17.1993 108.967 16.0341H110.132C109.633 17.6801 108.958 18.8915 108.107 19.6683C107.256 20.4266 106.294 20.9444 105.222 21.2218L104.806 23.2193C104.436 25.0132 103.798 26.2431 102.891 26.9089C101.985 27.5932 100.959 27.9354 99.812 27.9354ZM100.034 18.4754C100.459 18.4754 100.894 18.2812 101.338 17.8928C101.782 17.5044 102.087 16.9773 102.253 16.3115L103.668 9.73669C103.668 9.51475 103.576 9.29281 103.391 9.07088C103.206 8.83045 102.919 8.71023 102.531 8.71023C101.791 8.71023 101.125 9.14486 100.533 10.0141C99.9414 10.8649 99.4791 11.9006 99.1462 13.1212C98.8133 14.3234 98.6468 15.3868 98.6468 16.3115C98.6468 17.2363 98.7763 17.8281 99.0352 18.087C99.3126 18.3459 99.6455 18.4754 100.034 18.4754ZM99.1739 25.7715C99.4883 25.7715 99.7935 25.5588 100.089 25.1335C100.385 24.7081 100.616 24.0978 100.783 23.3025L100.949 22.498C99.1369 23.1638 98.2307 23.9498 98.2307 24.856C98.2307 25.0965 98.3139 25.3092 98.4804 25.4941C98.6468 25.6791 98.878 25.7715 99.1739 25.7715Z" fill="#FF6F6F"/>
<path d="M90.6662 21.1102C90.0559 21.1102 89.538 20.8975 89.1127 20.4721C88.6873 20.0467 88.4746 19.5289 88.4746 18.9186C88.4746 18.3083 88.6873 17.7904 89.1127 17.365C89.538 16.9212 90.0559 16.6992 90.6662 16.6992C91.2765 16.6992 91.7944 16.9212 92.2198 17.365C92.6636 17.7904 92.8856 18.3083 92.8856 18.9186C92.8856 19.5289 92.6636 20.0467 92.2198 20.4721C91.7944 20.8975 91.2765 21.1102 90.6662 21.1102Z" fill="#FF6F6F"/>
<path d="M77.9944 21.1664C76.9402 21.1664 76.0617 20.8057 75.3589 20.0844C74.6561 19.3631 74.3047 18.235 74.3047 16.6999C74.3047 15.3313 74.5729 13.898 75.1092 12.3999C75.664 10.8834 76.4778 9.60722 77.5505 8.57152C78.6417 7.51733 79.9363 6.99023 81.4344 6.99023C82.1926 6.99023 82.7567 7.1197 83.1266 7.37862C83.4965 7.63755 83.6815 7.9797 83.6815 8.40507V8.59927L83.9866 7.12894H87.9815L85.984 16.5612C85.9101 16.8386 85.8731 17.1345 85.8731 17.4489C85.8731 17.8188 85.9563 18.087 86.1227 18.2535C86.3077 18.4014 86.6036 18.4754 87.0105 18.4754C87.2694 18.4754 87.4729 18.4384 87.6208 18.3644C87.2139 19.4001 86.8255 20.1307 86.4557 20.556C86.0858 20.9629 85.5494 21.1664 84.8466 21.1664C84.0883 21.1664 83.4688 20.9444 82.9879 20.5006C82.5255 20.0382 82.2389 19.4001 82.1279 18.5864C80.9997 20.3064 79.6219 21.1664 77.9944 21.1664ZM79.7976 18.4754C80.26 18.4754 80.7131 18.2627 81.1569 17.8373C81.6193 17.3935 81.9337 16.7924 82.1002 16.0341L83.4318 9.76443C83.4318 9.524 83.3393 9.29281 83.1544 9.07088C82.9694 8.83045 82.6828 8.71023 82.2944 8.71023C81.5546 8.71023 80.8888 9.14486 80.2969 10.0141C79.7051 10.8649 79.2427 11.9006 78.9098 13.1212C78.5769 14.3234 78.4105 15.3868 78.4105 16.3115C78.4105 17.2363 78.5399 17.8281 78.7989 18.087C79.0763 18.3459 79.4092 18.4754 79.7976 18.4754Z" fill="#512824"/>
<path d="M70.0153 21.1659C69.1275 21.1659 68.4062 20.8885 67.8514 20.3336C67.3151 19.7788 67.0469 18.9465 67.0469 17.8369C67.0469 17.3745 67.1209 16.7734 67.2688 16.0336L70.2372 2.13492L74.343 1.58008L71.1527 16.5607C71.0787 16.8381 71.0417 17.1341 71.0417 17.4485C71.0417 17.8184 71.1249 18.0865 71.2914 18.253C71.4763 18.4009 71.7723 18.4749 72.1791 18.4749C72.7155 18.4749 73.2148 18.253 73.6772 17.8091C74.1396 17.3467 74.4725 16.7549 74.6759 16.0336H75.8411C75.1568 18.031 74.2783 19.3904 73.2056 20.1117C72.1329 20.8145 71.0695 21.1659 70.0153 21.1659Z" fill="#512824"/>
<path d="M59.1282 21.1105C57.7596 21.1105 56.6776 20.7591 55.8824 20.0563C55.0871 19.3535 54.6895 18.2439 54.6895 16.7273C54.6895 15.4697 54.9484 14.0733 55.4662 12.5383C55.9841 11.0032 56.8163 9.68084 57.963 8.57116C59.1097 7.44299 60.5522 6.87891 62.2907 6.87891C64.6581 6.87891 65.8417 8.35848 65.8417 11.3176V11.3454C65.8972 11.3639 65.9989 11.3731 66.1469 11.3731C66.7572 11.3731 67.46 11.2159 68.2553 10.9015C69.0505 10.5686 69.7718 10.1709 70.4191 9.70858L70.6688 10.4576C70.1325 11.0309 69.4297 11.5211 68.5604 11.9279C67.7097 12.3163 66.7757 12.5937 65.7585 12.7602C65.6105 14.4432 65.2314 15.9135 64.6211 17.1712C64.0107 18.4288 63.2247 19.3998 62.263 20.0841C61.3013 20.7684 60.2563 21.1105 59.1282 21.1105ZM60.2378 18.6137C60.6817 18.6137 61.1256 18.3641 61.5695 17.8647C62.0133 17.3469 62.4017 16.6533 62.7346 15.7841C63.0675 14.8963 63.3079 13.9161 63.4559 12.8434C62.9565 12.7325 62.7069 12.3441 62.7069 11.6783C62.7069 10.92 62.9935 10.4206 63.5669 10.1802C63.5299 9.56987 63.4374 9.15374 63.2895 8.93181C63.1415 8.69138 62.8826 8.57116 62.5127 8.57116C61.9024 8.57116 61.3105 9.01503 60.7372 9.90278C60.1639 10.7905 59.7015 11.854 59.3501 13.0931C58.9987 14.3322 58.823 15.4234 58.823 16.3666C58.823 17.2544 58.9247 17.8555 59.1282 18.1699C59.3316 18.4658 59.7015 18.6137 60.2378 18.6137Z" fill="#512824"/>
<path d="M51.0866 21.166C49.9584 21.166 49.1262 20.8701 48.5898 20.2782C48.072 19.6679 47.8131 18.9189 47.8131 18.0311C47.8131 17.6427 47.8593 17.2081 47.9518 16.7273C48.0442 16.2279 48.1367 15.747 48.2292 15.2847C48.3402 14.8223 48.4141 14.5264 48.4511 14.3969C48.5991 13.7496 48.7378 13.1116 48.8673 12.4827C48.9967 11.8539 49.0615 11.3453 49.0615 10.9569C49.0615 10.0137 48.7285 9.54209 48.0627 9.54209C47.5819 9.54209 47.1565 9.78252 46.7866 10.2634C46.4167 10.7257 46.1208 11.3361 45.8989 12.0944L44.0124 20.9995H40.0176L42.9582 7.12855H46.9531L46.6479 8.57113C47.5726 7.53543 48.6546 7.01758 49.8937 7.01758C50.8369 7.01758 51.586 7.2765 52.1408 7.79435C52.6956 8.3122 52.9731 9.09822 52.9731 10.1524C52.9731 10.6888 52.9083 11.2898 52.7789 11.9556C52.6494 12.603 52.4645 13.3982 52.224 14.3414C52.0761 14.9148 51.9374 15.4789 51.8079 16.0337C51.6969 16.5701 51.6415 16.9954 51.6415 17.3098C51.6415 17.6797 51.7247 17.9664 51.8911 18.1698C52.0576 18.3733 52.3442 18.475 52.7511 18.475C53.306 18.475 53.7498 18.2808 54.0827 17.8924C54.4156 17.4855 54.7485 16.866 55.0815 16.0337H56.2466C55.5623 18.0681 54.767 19.4367 53.8608 20.1395C52.9731 20.8238 52.0483 21.166 51.0866 21.166Z" fill="#512824"/>
<path d="M29.7971 21.1664C28.7429 21.1664 27.8644 20.8057 27.1616 20.0844C26.4588 19.3631 26.1074 18.235 26.1074 16.6999C26.1074 15.3313 26.3756 13.898 26.9119 12.3999C27.4668 10.8834 28.2805 9.60722 29.3532 8.57152C30.4444 7.51733 31.739 6.99023 33.2371 6.99023C33.9954 6.99023 34.5595 7.1197 34.9294 7.37862C35.2993 7.63755 35.4842 7.9797 35.4842 8.40507V8.59927L35.7894 7.12894H39.7842L37.7868 16.5612C37.7128 16.8386 37.6758 17.1345 37.6758 17.4489C37.6758 18.2442 38.0549 18.6418 38.8132 18.6418C39.3311 18.6418 39.775 18.4014 40.1448 17.9206C40.5332 17.4397 40.8384 16.8109 41.0603 16.0341H42.2255C41.5412 18.0315 40.6904 19.3909 39.6732 20.1122C38.6745 20.815 37.6666 21.1664 36.6494 21.1664C35.8726 21.1664 35.2438 20.9537 34.7629 20.5283C34.3005 20.0844 34.0231 19.4464 33.9306 18.6141C33.3943 19.3724 32.7932 19.992 32.1274 20.4728C31.4801 20.9352 30.7033 21.1664 29.7971 21.1664ZM31.6003 18.4754C32.0627 18.4754 32.5158 18.2627 32.9597 17.8373C33.422 17.3935 33.7365 16.7924 33.9029 16.0341L35.2345 9.76443C35.2345 9.524 35.142 9.29281 34.9571 9.07088C34.7722 8.83045 34.4855 8.71023 34.0971 8.71023C33.3573 8.71023 32.6915 9.14486 32.0997 10.0141C31.5079 10.8649 31.0455 11.9006 30.7126 13.1212C30.3797 14.3234 30.2132 15.3868 30.2132 16.3115C30.2132 17.2363 30.3427 17.8281 30.6016 18.087C30.879 18.3459 31.2119 18.4754 31.6003 18.4754Z" fill="#512824"/>
<path d="M17.925 7.12891H21.9199L21.5592 8.84891C22.188 8.29407 22.7521 7.86869 23.2515 7.57278C23.7693 7.27686 24.3242 7.12891 24.916 7.12891C25.5078 7.12891 25.9702 7.33235 26.3031 7.73923C26.6545 8.14611 26.8302 8.63622 26.8302 9.20955C26.8302 9.74589 26.6545 10.2175 26.3031 10.6244C25.9517 11.0313 25.4616 11.2347 24.8328 11.2347C24.4259 11.2347 24.1485 11.1422 24.0005 10.9573C23.871 10.7539 23.7693 10.4672 23.6953 10.0973C23.6399 9.85686 23.5844 9.68116 23.5289 9.5702C23.4734 9.45923 23.3717 9.40374 23.2237 9.40374C22.8353 9.40374 22.5024 9.48697 22.225 9.65342C21.9661 9.80138 21.6239 10.0696 21.1986 10.4579L18.9792 20.9999H14.9844L17.925 7.12891Z" fill="#512824"/>
<path d="M6.40863 26.7423C5.05853 26.7423 3.96734 26.3909 3.13509 25.6881C2.32132 25.0038 1.91444 24.0975 1.91444 22.9693C1.91444 22.2666 2.08089 21.6192 2.4138 21.0274C2.7467 20.4356 3.19982 19.9732 3.77315 19.6403C4.34648 19.2889 4.9753 19.1132 5.6596 19.1132C6.3624 19.1132 6.92648 19.2889 7.35186 19.6403C7.79573 19.9917 8.01767 20.4541 8.01767 21.0274C8.01767 21.4713 7.91595 21.8227 7.71251 22.0816C7.54605 21.8597 7.31487 21.684 7.01896 21.5545C6.74154 21.425 6.44562 21.3603 6.13122 21.3603C5.57638 21.3603 5.12326 21.5453 4.77186 21.9152C4.42046 22.285 4.24476 22.7659 4.24476 23.3577C4.24476 23.9496 4.41122 24.4304 4.74412 24.8003C5.09552 25.1702 5.53014 25.3552 6.04799 25.3552C6.6953 25.3552 7.25014 25.0685 7.71251 24.4952C8.17487 23.9218 8.52627 23.0711 8.7667 21.9429L10.1538 15.8119H10.0428C9.54347 16.5147 8.93315 17.0511 8.21186 17.421C7.50906 17.7909 6.73229 17.9758 5.88154 17.9758C4.80885 17.9758 3.86562 17.6891 3.05186 17.1158C2.2381 16.5425 1.60928 15.7287 1.16541 14.6745C0.740032 13.6018 0.527344 12.3627 0.527344 10.9571C0.527344 8.92268 0.971215 7.07322 1.85896 5.4087C2.7467 3.72569 3.96734 2.40332 5.52089 1.4416C7.07444 0.479884 8.78519 -0.000976562 10.6532 -0.000976562C12.2252 -0.000976562 13.4643 0.341174 14.3706 1.02548C15.2953 1.70978 15.7577 2.64375 15.7577 3.82741C15.7577 4.62268 15.5635 5.26074 15.1751 5.7416C14.7867 6.22246 14.2781 6.46289 13.6493 6.46289C13.2979 6.46289 12.965 6.38892 12.6506 6.24096C12.3547 6.093 12.105 5.88031 11.9015 5.6029C12.2344 5.38096 12.5119 5.02956 12.7338 4.5487C12.9742 4.04935 13.0944 3.54999 13.0944 3.05064C13.0944 2.4958 12.928 2.07042 12.5951 1.77451C12.2807 1.4601 11.8276 1.30289 11.2357 1.30289C10.163 1.30289 9.12734 1.78375 8.12863 2.74547C7.12992 3.6887 6.32541 4.92784 5.71509 6.46289C5.10476 7.99795 4.7996 9.60698 4.7996 11.29C4.7996 12.6771 5.02154 13.7405 5.46541 14.4803C5.90928 15.2016 6.54734 15.5623 7.3796 15.5623C8.37831 15.5623 9.25681 15.0352 10.0151 13.981C10.7919 12.9268 11.4114 11.3917 11.8738 9.3758L15.1473 9.40354L13.1222 18.7248C12.5304 21.4805 11.6889 23.5057 10.5977 24.8003C9.52498 26.0949 8.12863 26.7423 6.40863 26.7423Z" fill="#512824"/>
</svg>
