<svg width="227" height="154" viewBox="0 0 227 154" fill="none" xmlns="http://www.w3.org/2000/svg">
<path d="M119 58C119 63.5228 114.523 68 109 68H20.0856C17.1743 68 14.4075 69.2687 12.5078 71.4748L2.4225 83.187C0.859773 85.0018 0.000254375 87.3172 0.000245239 89.7122L3.81471e-05 144C1.70791e-05 149.523 4.47716 154 10 154H205.229C208.247 154 211.103 152.637 213.002 150.292L224.772 135.752C226.214 133.971 227 131.75 227 129.46V10C227 4.47715 222.523 0 217 0H138.285C135.259 0 132.396 1.3702 130.498 3.72671L121.212 15.2535C119.781 17.0308 119 19.2445 119 21.5268V58Z" fill="#2B2334"/>
</svg>
