<svg width="64" height="50" viewBox="0 0 64 50" fill="none" xmlns="http://www.w3.org/2000/svg">
<path d="M21.6119 30.4666C18.5075 30.4666 15.9762 27.6651 15.9762 24.2381C15.9762 20.8082 18.4448 18.0067 21.6149 18.0067C24.7491 18.0067 27.3162 20.8082 27.2535 24.2381C27.2535 27.6651 24.7491 30.4666 21.6119 30.4666ZM42.4294 30.4636C39.3249 30.4636 36.7877 27.6621 36.7877 24.2352C36.7877 20.8052 39.2623 18.0038 42.4294 18.0038C45.5636 18.0038 48.1307 20.8052 48.071 24.2352C48.071 27.6621 45.5965 30.4636 42.4294 30.4636ZM26.4028 2.22957L25.8932 1.30447C25.6477 0.8587 25.1476 0.616304 24.6456 0.699668L23.5909 0.874786C19.302 1.58504 15.1279 2.86119 11.1792 4.66936L10.8031 4.84141C10.6039 4.93249 10.4335 5.07632 10.3103 5.25733L10.0748 5.60319C2.27495 17.0255 0.134698 28.2758 1.19438 39.3245L1.2587 39.9912C1.29182 40.3344 1.47099 40.6468 1.75052 40.8487L2.29585 41.2426C6.88442 44.5862 12.0093 47.135 17.4537 48.7813L18.7691 49.1815C19.3605 49.3614 19.9919 49.0626 20.2277 48.4912L22.7408 42.4007C22.967 41.8524 23.5595 41.5538 24.1395 41.678C29.2348 42.7692 34.7617 42.7694 39.8548 41.6786C40.4358 41.5542 41.0291 41.8539 41.2546 42.4036L43.7521 48.4912C43.9871 49.064 44.6192 49.364 45.2116 49.1838L46.5248 48.7843C51.9736 47.1416 57.1014 44.5903 61.6887 41.2396L62.2275 40.8501C62.5056 40.6491 62.6843 40.3387 62.7186 39.9972L62.7842 39.3423C64.0856 26.5356 60.7036 15.3802 53.9545 5.59429L53.7199 5.25307C53.5961 5.0729 53.4254 4.92999 53.2262 4.83978L52.85 4.66936C48.9024 2.86941 44.7333 1.59358 40.4503 0.874786L39.4214 0.704478C38.9302 0.623171 38.4398 0.853645 38.1889 1.28372L37.6683 2.17621C37.5334 2.40446 37.3978 2.64832 37.263 2.901C37.0282 3.34115 36.555 3.60257 36.058 3.56029C33.3657 3.33127 30.6586 3.33133 27.9663 3.56046C27.4702 3.60268 26.9968 3.343 26.7655 2.90216C26.6411 2.6651 26.5194 2.43879 26.4028 2.22957ZM16.2239 38.6605C16.4932 38.8152 16.7693 38.9687 17.0483 39.1187C17.6043 39.4176 17.8579 40.086 17.6172 40.6695L17.1425 41.8203C16.8975 42.414 16.2279 42.7113 15.6297 42.4773C12.5776 41.2835 9.66611 39.7604 6.94771 37.935C6.6456 37.7322 6.45575 37.3999 6.43371 37.0366C5.88632 28.0169 7.79629 18.9125 13.9301 9.53719C14.0564 9.34415 14.2377 9.19108 14.4498 9.10035C16.7721 8.10692 19.1771 7.31694 21.6371 6.73923C22.1749 6.61295 22.7275 6.88222 22.9508 7.38749C22.9812 7.45644 23.0106 7.52386 23.0387 7.58941L23.491 8.64739C23.7048 9.14751 24.2283 9.44129 24.7665 9.36326L25.9192 9.19618C29.9672 8.60722 34.08 8.60722 38.128 9.19618L39.2748 9.36124C39.813 9.43872 40.3361 9.14454 40.5495 8.64435L40.9995 7.58941C41.0267 7.5252 41.0547 7.45987 41.0835 7.39366C41.3048 6.88512 41.8599 6.61393 42.3996 6.74153C44.874 7.32652 47.2785 8.12442 49.5946 9.10751C49.8066 9.1975 49.9875 9.34855 50.1143 9.54077C55.4825 17.6754 58.2296 26.7243 57.5591 37.037C57.5357 37.3977 57.3465 37.7283 57.0466 37.9302C54.3275 39.7603 51.4132 41.2853 48.357 42.4777C47.7579 42.7114 47.0879 42.4124 46.8443 41.8172L46.376 40.6727C46.1371 40.0889 46.3921 39.4216 46.9479 39.1233C47.2293 38.9723 47.5082 38.8173 47.7815 38.6605C48.856 38.0463 49.9902 37.3202 50.9141 36.5831C51.4347 36.1677 51.4354 35.4028 50.9629 34.9335L48.8476 32.8327C48.3786 32.3669 47.6106 32.3589 47.0744 32.7453C46.5406 33.13 45.8576 33.5682 45.083 34.0121C43.7577 34.771 42.4413 35.3847 41.5995 35.6604C35.6205 37.6259 28.3819 37.6259 22.3999 35.6604C21.5611 35.3847 20.2447 34.771 18.9194 34.0121C18.1424 33.5685 17.4576 33.1288 16.9225 32.7427C16.3877 32.3568 15.6224 32.3654 15.1544 32.8301L13.0378 34.9322C12.5648 35.402 12.5661 36.1679 13.0877 36.5831C14.0136 37.3202 15.1494 38.0463 16.2239 38.6605Z" fill="#2B2334"/>
</svg>
