<svg width="71" height="54" viewBox="0 0 71 54" fill="none" xmlns="http://www.w3.org/2000/svg">
<path fill-rule="evenodd" clip-rule="evenodd" d="M59.1618 0.260324C64.5087 -1.01766 70.066 3.20188 70.066 9.17546V14.9987C70.066 15.0338 70.0652 15.0688 70.0638 15.1038C70.0652 15.1387 70.066 15.1738 70.066 15.209V46.1594C70.066 49.8565 67.1154 53.0312 63.2533 53.0312H53.4054L53.3866 53.0312H7.92469C4.07709 53.0312 0.935547 49.9684 0.935547 46.1594V15.2089C0.935547 15.1737 0.936285 15.1385 0.937749 15.1035C0.936284 15.0685 0.935547 15.0334 0.935547 14.9982V9.17583C0.935547 3.66865 5.65278 -0.345774 10.5796 0.0596126H59.1618V0.260324ZM20.1885 24.3326V12.0491L33.9715 21.9657C34.8824 22.6211 36.119 22.6211 37.0299 21.9657L50.813 12.0488V24.3325L35.5007 35.3497L20.1885 24.3326ZM7.30056 21.1765L15.5915 27.6106V47.9247H7.92469C6.92156 47.9247 6.12036 47.1294 6.12036 46.1594V20.3071L7.30056 21.1765ZM15.0034 8.23096L12.0532 5.9413C9.77099 4.17288 6.12036 5.65816 6.12036 9.17583V13.7594L10.4582 17.1257L15.0034 20.4739V8.23096ZM20.7764 47.9247V31.0795L33.9715 40.5734C34.8824 41.2288 36.119 41.2288 37.0299 40.5734L50.813 30.6565V47.9247H20.7764ZM55.998 8.2311V20.6532L64.8812 13.7598V9.17546C64.8812 5.65694 61.2236 4.17476 58.9498 5.94043L55.998 8.2311ZM35.5007 16.742L51.5896 5.16613H19.4114L35.5007 16.742ZM55.9979 47.9247V27.2528L64.8812 20.4354V46.1594C64.8812 47.2275 64.0615 47.9247 63.2533 47.9247H55.9979Z" fill="#2B2334"/>
</svg>
